<svg width="24" height="24" viewBox="0 0 24 24" fill="none" xmlns="http://www.w3.org/2000/svg">
<g id="Close">
<g id="Vector">
<path d="M3.21967 4.28033C2.92678 3.98744 2.92678 3.51256 3.21967 3.21967C3.51256 2.92678 3.98744 2.92678 4.28033 3.21967L12 10.9393L19.7197 3.21967C20.0126 2.92678 20.4874 2.92678 20.7803 3.21967C21.0732 3.51256 21.0732 3.98744 20.7803 4.28033L13.0607 12L20.7803 19.7197C21.0732 20.0126 21.0732 20.4874 20.7803 20.7803C20.4874 21.0732 20.0126 21.0732 19.7197 20.7803L12 13.0607L4.28033 20.7803C3.98744 21.0732 3.51256 21.0732 3.21967 20.7803C2.92678 20.4874 2.92678 20.0126 3.21967 19.7197L10.9393 12L3.21967 4.28033Z" fill="#64748B"/>
<path fill-rule="evenodd" clip-rule="evenodd" d="M3.04289 3.04289C3.43342 2.65237 4.06658 2.65237 4.45711 3.04289L12 10.5858L19.5429 3.04289C19.9334 2.65237 20.5666 2.65237 20.9571 3.04289C21.3476 3.43342 21.3476 4.06658 20.9571 4.45711L13.4142 12L20.9571 19.5429C21.3476 19.9334 21.3476 20.5666 20.9571 20.9571C20.5666 21.3476 19.9334 21.3476 19.5429 20.9571L12 13.4142L4.45711 20.9571C4.06658 21.3476 3.43342 21.3476 3.04289 20.9571C2.65237 20.5666 2.65237 19.9334 3.04289 19.5429L10.5858 12L3.04289 4.45711C2.65237 4.06658 2.65237 3.43342 3.04289 3.04289ZM4.10355 3.39645C3.90829 3.20118 3.59171 3.20118 3.39645 3.39645C3.20118 3.59171 3.20118 3.90829 3.39645 4.10355L11.1161 11.8232C11.2137 11.9209 11.2137 12.0791 11.1161 12.1768L3.39645 19.8964C3.20119 20.0917 3.20119 20.4083 3.39645 20.6036C3.59171 20.7988 3.90829 20.7988 4.10355 20.6036L11.8232 12.8839C11.9209 12.7863 12.0791 12.7863 12.1768 12.8839L19.8964 20.6036C20.0917 20.7988 20.4083 20.7988 20.6036 20.6036C20.7988 20.4083 20.7988 20.0917 20.6036 19.8964L12.8839 12.1768C12.7863 12.0791 12.7863 11.9209 12.8839 11.8232L20.6036 4.10355C20.7988 3.90829 20.7988 3.59171 20.6036 3.39645C20.4083 3.20118 20.0917 3.20118 19.8964 3.39645L12.1768 11.1161C12.1299 11.163 12.0663 11.1893 12 11.1893C11.9337 11.1893 11.8701 11.163 11.8232 11.1161L4.10355 3.39645Z" fill="#64748B"/>
</g>
</g>
</svg>
