<svg width="24" height="24" viewBox="0 0 24 24" fill="none" xmlns="http://www.w3.org/2000/svg">
<g id="Copy">
<path id="Vector" d="M9.25006 5.89972H16.6791V4.85037C16.6791 4.32009 16.4619 3.83818 16.1116 3.48802C15.7613 3.13773 15.2794 2.92059 14.7499 2.92059H4.85037C4.32009 2.92059 3.83818 3.13774 3.48802 3.48802C3.13773 3.83831 2.92059 4.32025 2.92059 4.85037V14.7499C2.92059 15.2794 3.13774 15.7621 3.48802 16.1116C3.83831 16.4619 4.32025 16.6791 4.85037 16.6791H5.89972V9.25006C5.89972 8.32792 6.2767 7.49042 6.88327 6.88323C7.48984 6.27604 8.32781 5.89968 9.2501 5.89968L9.25006 5.89972ZM18.1003 5.89972H19.1496C20.0718 5.89972 20.9093 6.2767 21.5165 6.88327C22.123 7.48983 22.5 8.32781 22.5 9.2501V19.1496C22.5 20.0718 22.123 20.9093 21.5165 21.5165C20.9093 22.1236 20.0719 22.5 19.1496 22.5H9.2501C8.32796 22.5 7.49046 22.123 6.88327 21.5165C6.27608 20.9099 5.89972 20.0719 5.89972 19.1496V18.1003H4.85037C3.92824 18.1003 3.09073 17.7233 2.48355 17.1167C1.87698 16.5102 1.5 15.6722 1.5 14.7499V4.85037C1.5 3.92824 1.87698 3.09073 2.48355 2.48355C3.09073 1.87698 3.92808 1.5 4.85037 1.5H14.7499C15.672 1.5 16.5095 1.87698 17.1167 2.48355C17.7239 3.09073 18.1003 3.92808 18.1003 4.85037V5.89972ZM19.1496 7.32089H9.2501C8.72055 7.32089 8.2379 7.53804 7.88836 7.88832C7.53807 8.23861 7.32093 8.72055 7.32093 9.25068V19.1502C7.32093 19.6798 7.53808 20.1624 7.88836 20.5126C8.23865 20.8629 8.72059 21.08 9.2501 21.08H19.1496C19.6799 21.08 20.1618 20.8628 20.512 20.5126C20.8623 20.1623 21.0794 19.6803 21.0794 19.1502V9.25068C21.0794 8.72113 20.8623 8.23848 20.512 7.88832C20.1617 7.53803 19.6798 7.32089 19.1496 7.32089Z" fill="#64748B"/>
</g>
</svg>
