<svg width="20" height="20" viewBox="0 0 20 20" fill="none" xmlns="http://www.w3.org/2000/svg">
<g id="Copy">
<path id="Vector" d="M7.70838 4.91644H13.8992V4.04198C13.8992 3.60008 13.7183 3.19848 13.4264 2.90668C13.1345 2.61477 12.7328 2.43382 12.2916 2.43382H4.04198C3.60008 2.43382 3.19848 2.61478 2.90668 2.90668C2.61477 3.19859 2.43382 3.60021 2.43382 4.04198V12.2916C2.43382 12.7329 2.61478 13.1351 2.90668 13.4264C3.19859 13.7183 3.60021 13.8992 4.04198 13.8992H4.91644V7.70838C4.91644 6.93994 5.23058 6.24201 5.73606 5.73603C6.24153 5.23004 6.93984 4.9164 7.70841 4.9164L7.70838 4.91644ZM15.0836 4.91644H15.958C16.7265 4.91644 17.4244 5.23058 17.9304 5.73606C18.4358 6.24153 18.75 6.93984 18.75 7.70841V15.958C18.75 16.7265 18.4359 17.4244 17.9304 17.9304C17.4244 18.4364 16.7266 18.75 15.958 18.75H7.70841C6.93997 18.75 6.24205 18.4359 5.73606 17.9304C5.23007 17.4249 4.91644 16.7266 4.91644 15.958V15.0836H4.04198C3.27353 15.0836 2.57561 14.7694 2.06962 14.2639C1.56415 13.7585 1.25 13.0602 1.25 12.2916V4.04198C1.25 3.27353 1.56415 2.57561 2.06962 2.06962C2.57561 1.56415 3.2734 1.25 4.04198 1.25H12.2916C13.06 1.25 13.758 1.56415 14.2639 2.06962C14.7699 2.57561 15.0836 3.2734 15.0836 4.04198V4.91644ZM15.958 6.10074H7.70841C7.26713 6.10074 6.86492 6.2817 6.57364 6.5736C6.28173 6.86551 6.10077 7.26713 6.10077 7.7089V15.9585C6.10077 16.3998 6.28173 16.802 6.57364 17.0938C6.86554 17.3857 7.26716 17.5667 7.70841 17.5667H15.958C16.3999 17.5667 16.8015 17.3857 17.0933 17.0938C17.3852 16.8019 17.5662 16.4003 17.5662 15.9585V7.7089C17.5662 7.26761 17.3852 6.8654 17.0933 6.5736C16.8014 6.28169 16.3998 6.10074 15.958 6.10074Z" fill="#94A3B8"/>
</g>
</svg>
