<svg width="20" height="20" viewBox="0 0 20 20" fill="none" xmlns="http://www.w3.org/2000/svg">
<g id="eye">
<g id="Vector">
<path d="M20 10C20 10 16.25 3.125 10 3.125C3.75 3.125 0 10 0 10C0 10 3.75 16.875 10 16.875C16.25 16.875 20 10 20 10ZM1.46587 10C1.53703 9.89151 1.61818 9.77097 1.70909 9.64052C2.1277 9.03991 2.74539 8.24113 3.54013 7.44638C5.15129 5.83523 7.35077 4.375 10 4.375C12.6492 4.375 14.8487 5.83523 16.4599 7.44638C17.2546 8.24113 17.8723 9.03991 18.2909 9.64052C18.3818 9.77097 18.463 9.89151 18.5341 10C18.463 10.1085 18.3818 10.229 18.2909 10.3595C17.8723 10.9601 17.2546 11.7589 16.4599 12.5536C14.8487 14.1648 12.6492 15.625 10 15.625C7.35077 15.625 5.15129 14.1648 3.54013 12.5536C2.74539 11.7589 2.1277 10.9601 1.70909 10.3595C1.61818 10.229 1.53703 10.1085 1.46587 10Z" fill="#94A3B8"/>
<path d="M10 6.875C8.27411 6.875 6.875 8.27411 6.875 10C6.875 11.7259 8.27411 13.125 10 13.125C11.7259 13.125 13.125 11.7259 13.125 10C13.125 8.27411 11.7259 6.875 10 6.875ZM5.625 10C5.625 7.58375 7.58375 5.625 10 5.625C12.4162 5.625 14.375 7.58375 14.375 10C14.375 12.4162 12.4162 14.375 10 14.375C7.58375 14.375 5.625 12.4162 5.625 10Z" fill="#94A3B8"/>
</g>
</g>
</svg>
