<svg width="24" height="20" viewBox="0 0 24 20" fill="none" xmlns="http://www.w3.org/2000/svg">
<g id="fa-solid:gifts" clip-path="url(#clip0_800_20630)">
<g id="Vector">
<path fill-rule="evenodd" clip-rule="evenodd" d="M22.7986 8.40029H22.0336C22.1311 8.11529 22.1986 7.81904 22.1986 7.50779C22.1986 6.17654 21.1861 4.80029 19.4948 4.80029C17.691 4.80029 16.6485 6.58904 16.1985 7.62404C15.7448 6.58904 14.7022 4.80029 12.9022 4.80029C11.211 4.80029 10.1985 6.17654 10.1985 7.50779C10.1985 7.81904 10.2622 8.11529 10.3635 8.40029H9.59845C8.93469 8.40029 8.39844 8.93654 8.39844 9.60029V13.2003H15.5985V8.40029H16.1723L16.1985 8.39279L16.2248 8.40029H16.7985V13.2003H23.9986V9.60029C23.9986 8.93654 23.4623 8.40029 22.7986 8.40029ZM12.3285 8.22029C12.4072 8.28779 12.4972 8.34779 12.5985 8.40029H14.571C14.2372 7.62779 13.6035 6.60029 12.9022 6.60029C12.2385 6.60029 11.9985 7.14404 11.9985 7.50779C11.9985 7.70279 12.0547 7.98029 12.3285 8.22029ZM19.7985 8.40029C19.8998 8.34779 19.9898 8.28779 20.0685 8.22029C20.3423 7.98029 20.3985 7.70279 20.3985 7.50779C20.3985 7.14404 20.1585 6.60029 19.4948 6.60029C18.7935 6.60029 18.156 7.63904 17.826 8.40029H19.7985Z" fill="#1D86FF"/>
<path d="M8.39844 18.0003C8.39844 18.664 8.93469 19.2003 9.59845 19.2003H15.5985V14.4003H8.39844V18.0003Z" fill="#1D86FF"/>
<path d="M16.7985 19.2003H22.7986C23.4623 19.2003 23.9986 18.664 23.9986 18.0003V14.4003H16.7985V19.2003Z" fill="#1D86FF"/>
</g>
<path id="Vector_2" d="M9.0225 7.27951C9.09375 6.12451 9.67124 4.98451 10.6725 4.28701C10.4775 3.88201 10.0763 3.60076 9.6 3.60076H8.4975L9.64875 2.77576C9.91875 2.58451 9.9825 2.20951 9.7875 1.93951L9.43875 1.45201C9.2475 1.18201 8.8725 1.11826 8.6025 1.31326L7.4025 2.17201L7.83375 1.02451C7.95 0.713262 7.7925 0.368262 7.48125 0.252012L6.91875 0.0420123C6.6075 -0.0742377 6.2625 0.0832622 6.14625 0.394512L5.4 2.38201L4.65375 0.390762C4.5375 0.0795125 4.1925 -0.0779879 3.88125 0.038262L3.31875 0.248262C3.0075 0.364512 2.85 0.713262 2.97 1.02076L3.40125 2.16826L2.1975 1.31326C1.9275 1.12201 1.5525 1.18201 1.36125 1.45201L1.0125 1.93951C0.821248 2.20951 0.881247 2.58451 1.15125 2.77576L2.3025 3.60076H1.2C0.536243 3.60076 0 4.13701 0 4.80076V18.0008C0 18.6645 0.536243 19.2008 1.2 19.2008H7.53375C7.3275 18.8445 7.2 18.4395 7.2 18.0008V9.60076C7.2 8.47951 7.97999 7.53826 9.0225 7.27951Z" fill="#D0E7FF"/>
</g>
<defs>
<clipPath id="clip0_800_20630">
<rect width="24" height="19.2" fill="white"/>
</clipPath>
</defs>
</svg>
