<svg width="16" height="16" viewBox="0 0 16 16" fill="none" xmlns="http://www.w3.org/2000/svg">
<g id="mi:filter">
<path id="Vector" d="M5.49967 5.00004C5.27866 5.00004 5.0667 5.0878 4.91042 5.24402C4.75414 5.40024 4.66634 5.61211 4.66634 5.83304C4.66634 6.05396 4.75414 6.26583 4.91042 6.42205C5.0667 6.57827 5.27866 6.66603 5.49967 6.66603C5.72069 6.66603 5.93265 6.57827 6.08893 6.42205C6.24521 6.26583 6.33301 6.05396 6.33301 5.83304C6.33301 5.61211 6.24521 5.40024 6.08893 5.24402C5.93265 5.0878 5.72069 5.00004 5.49967 5.00004ZM3.14134 5.00004C3.31351 4.5123 3.63279 4.08994 4.05517 3.79119C4.47756 3.49245 4.98225 3.33202 5.49967 3.33202C6.0171 3.33202 6.52179 3.49245 6.94417 3.79119C7.36656 4.08994 7.68584 4.5123 7.85801 5.00004H13.833C14.054 5.00004 14.266 5.0878 14.4223 5.24402C14.5785 5.40024 14.6663 5.61211 14.6663 5.83304C14.6663 6.05396 14.5785 6.26583 14.4223 6.42205C14.266 6.57827 14.054 6.66603 13.833 6.66603H7.85801C7.68584 7.15377 7.36656 7.57613 6.94417 7.87488C6.52179 8.17363 6.0171 8.33406 5.49967 8.33406C4.98225 8.33406 4.47756 8.17363 4.05517 7.87488C3.63279 7.57613 3.31351 7.15377 3.14134 6.66603H2.16634C1.94533 6.66603 1.73337 6.57827 1.57709 6.42205C1.42081 6.26583 1.33301 6.05396 1.33301 5.83304C1.33301 5.61211 1.42081 5.40024 1.57709 5.24402C1.73337 5.0878 1.94533 5.00004 2.16634 5.00004H3.14134ZM10.4997 9.998C10.2787 9.998 10.0667 10.0858 9.91042 10.242C9.75414 10.3982 9.66634 10.6101 9.66634 10.831C9.66634 11.0519 9.75414 11.2638 9.91042 11.42C10.0667 11.5762 10.2787 11.664 10.4997 11.664C10.7207 11.664 10.9326 11.5762 11.0889 11.42C11.2452 11.2638 11.333 11.0519 11.333 10.831C11.333 10.6101 11.2452 10.3982 11.0889 10.242C10.9326 10.0858 10.7207 9.998 10.4997 9.998ZM8.14134 9.998C8.31351 9.51026 8.63279 9.0879 9.05517 8.78915C9.47756 8.4904 9.98225 8.32997 10.4997 8.32997C11.0171 8.32997 11.5218 8.4904 11.9442 8.78915C12.3666 9.0879 12.6858 9.51026 12.858 9.998H13.833C14.054 9.998 14.266 10.0858 14.4223 10.242C14.5785 10.3982 14.6663 10.6101 14.6663 10.831C14.6663 11.0519 14.5785 11.2638 14.4223 11.42C14.266 11.5762 14.054 11.664 13.833 11.664H12.858C12.6858 12.1517 12.3666 12.5741 11.9442 12.8728C11.5218 13.1716 11.0171 13.332 10.4997 13.332C9.98225 13.332 9.47756 13.1716 9.05517 12.8728C8.63279 12.5741 8.31351 12.1517 8.14134 11.664H2.16634C1.94533 11.664 1.73337 11.5762 1.57709 11.42C1.42081 11.2638 1.33301 11.0519 1.33301 10.831C1.33301 10.6101 1.42081 10.3982 1.57709 10.242C1.73337 10.0858 1.94533 9.998 2.16634 9.998H8.14134Z" fill="#64748B"/>
</g>
</svg>
