<svg width="28" height="28" viewBox="0 0 28 28" fill="none" xmlns="http://www.w3.org/2000/svg">
<g id="fluent:cart-16-regular">
<path id="Vector" d="M4.375 3.5C4.14294 3.5 3.92038 3.59219 3.75628 3.75628C3.59219 3.92038 3.5 4.14294 3.5 4.375C3.5 4.60706 3.59219 4.82962 3.75628 4.99372C3.92038 5.15781 4.14294 5.25 4.375 5.25H4.8055C4.9955 5.25033 5.18023 5.31249 5.33177 5.4271C5.48332 5.5417 5.59344 5.70252 5.6455 5.88525L8.421 15.5977C8.57798 16.1459 8.90915 16.628 9.36443 16.9712C9.81971 17.3144 10.3744 17.5 10.9445 17.5H18.9403C19.465 17.5001 19.9777 17.3429 20.4122 17.0488C20.8468 16.7546 21.1831 16.337 21.378 15.8498L23.9575 9.39925C24.0635 9.13382 24.103 8.84646 24.0723 8.56228C24.0416 8.2781 23.9418 8.00575 23.7816 7.76905C23.6214 7.53235 23.4056 7.3385 23.1532 7.20443C22.9008 7.07037 22.6193 7.00018 22.3335 7H7.784L7.32725 5.404C7.17067 4.85585 6.8399 4.37358 6.38495 4.03007C5.92999 3.68656 5.37557 3.5005 4.8055 3.5H4.375ZM10.1045 15.1147L8.2845 8.75H22.3317L19.7522 15.2005C19.6872 15.3627 19.5752 15.5017 19.4304 15.5997C19.2857 15.6976 19.115 15.75 18.9403 15.75H10.9445C10.7545 15.7497 10.5698 15.6875 10.4182 15.5729C10.2667 15.4583 10.1566 15.2975 10.1045 15.1147ZM11.375 24.5C11.7197 24.5 12.0611 24.4321 12.3795 24.3002C12.698 24.1683 12.9874 23.9749 13.2312 23.7312C13.4749 23.4874 13.6683 23.198 13.8002 22.8795C13.9321 22.5611 14 22.2197 14 21.875C14 21.5303 13.9321 21.1889 13.8002 20.8705C13.6683 20.552 13.4749 20.2626 13.2312 20.0188C12.9874 19.7751 12.698 19.5817 12.3795 19.4498C12.0611 19.3179 11.7197 19.25 11.375 19.25C10.6788 19.25 10.0111 19.5266 9.51884 20.0188C9.02656 20.5111 8.75 21.1788 8.75 21.875C8.75 22.5712 9.02656 23.2389 9.51884 23.7312C10.0111 24.2234 10.6788 24.5 11.375 24.5ZM11.375 22.75C11.1429 22.75 10.9204 22.6578 10.7563 22.4937C10.5922 22.3296 10.5 22.1071 10.5 21.875C10.5 21.6429 10.5922 21.4204 10.7563 21.2563C10.9204 21.0922 11.1429 21 11.375 21C11.6071 21 11.8296 21.0922 11.9937 21.2563C12.1578 21.4204 12.25 21.6429 12.25 21.875C12.25 22.1071 12.1578 22.3296 11.9937 22.4937C11.8296 22.6578 11.6071 22.75 11.375 22.75ZM18.375 24.5C18.7197 24.5 19.0611 24.4321 19.3795 24.3002C19.698 24.1683 19.9874 23.9749 20.2312 23.7312C20.4749 23.4874 20.6683 23.198 20.8002 22.8795C20.9321 22.5611 21 22.2197 21 21.875C21 21.5303 20.9321 21.1889 20.8002 20.8705C20.6683 20.552 20.4749 20.2626 20.2312 20.0188C19.9874 19.7751 19.698 19.5817 19.3795 19.4498C19.0611 19.3179 18.7197 19.25 18.375 19.25C17.6788 19.25 17.0111 19.5266 16.5188 20.0188C16.0266 20.5111 15.75 21.1788 15.75 21.875C15.75 22.5712 16.0266 23.2389 16.5188 23.7312C17.0111 24.2234 17.6788 24.5 18.375 24.5ZM18.375 22.75C18.1429 22.75 17.9204 22.6578 17.7563 22.4937C17.5922 22.3296 17.5 22.1071 17.5 21.875C17.5 21.6429 17.5922 21.4204 17.7563 21.2563C17.9204 21.0922 18.1429 21 18.375 21C18.6071 21 18.8296 21.0922 18.9937 21.2563C19.1578 21.4204 19.25 21.6429 19.25 21.875C19.25 22.1071 19.1578 22.3296 18.9937 22.4937C18.8296 22.6578 18.6071 22.75 18.375 22.75Z" fill="#1E293B"/>
</g>
</svg>
