<svg width="28" height="28" viewBox="0 0 28 28" fill="none" xmlns="http://www.w3.org/2000/svg">
<g id="Icons">
<path id="Vector" d="M3.5 18.6663V17.9663C3.1134 17.9663 2.8 18.2797 2.8 18.6663H3.5ZM24.5 18.6663H25.2C25.2 18.2797 24.8866 17.9663 24.5 17.9663V18.6663ZM9.46111 11.1349C9.16758 11.3865 9.13359 11.8284 9.38519 12.1219C9.63678 12.4154 10.0787 12.4494 10.3722 12.1978L9.46111 11.1349ZM14 8.16634L14.4556 7.63486C14.1934 7.41017 13.8066 7.41017 13.5444 7.63486L14 8.16634ZM17.6278 12.1978C17.9213 12.4494 18.3632 12.4154 18.6148 12.1219C18.8664 11.8284 18.8324 11.3865 18.5389 11.1349L17.6278 12.1978ZM5.25 8.86634H22.75V7.46634H5.25V8.86634ZM22.75 8.86634C23.3299 8.86634 23.8 9.33644 23.8 9.91634H25.2C25.2 8.56324 24.1031 7.46634 22.75 7.46634V8.86634ZM23.8 9.91634V22.7497H25.2V9.91634H23.8ZM23.8 22.7497C23.8 23.3296 23.3299 23.7997 22.75 23.7997V25.1997C24.1031 25.1997 25.2 24.1028 25.2 22.7497H23.8ZM22.75 23.7997H5.25V25.1997H22.75V23.7997ZM5.25 23.7997C4.6701 23.7997 4.2 23.3296 4.2 22.7497H2.8C2.8 24.1028 3.8969 25.1997 5.25 25.1997V23.7997ZM4.2 22.7497V9.91634H2.8V22.7497H4.2ZM4.2 9.91634C4.2 9.33644 4.6701 8.86634 5.25 8.86634V7.46634C3.8969 7.46634 2.8 8.56324 2.8 9.91634H4.2ZM3.5 19.3663H24.5V17.9663H3.5V19.3663ZM23.8 18.6663V22.7497H25.2V18.6663H23.8ZM23.8 22.7497C23.8 23.0282 23.6894 23.2952 23.4925 23.4921L24.4824 24.4821C24.9419 24.0226 25.2 23.3995 25.2 22.7497H23.8ZM23.4925 23.4921C23.2955 23.689 23.0285 23.7997 22.75 23.7997V25.1997C23.3998 25.1997 24.0229 24.9415 24.4824 24.4821L23.4925 23.4921ZM5.25 23.7997C4.97152 23.7997 4.70445 23.689 4.50754 23.4921L3.51759 24.4821C3.97705 24.9415 4.60022 25.1997 5.25 25.1997V23.7997ZM4.50754 23.4921C4.31062 23.2952 4.2 23.0282 4.2 22.7497H2.8C2.8 23.3995 3.05812 24.0226 3.51759 24.4821L4.50754 23.4921ZM4.2 22.7497V18.6663H2.8V22.7497H4.2ZM13.3 5.24967C13.3 6.47391 12.3076 7.46634 11.0833 7.46634V8.86634C13.0808 8.86634 14.7 7.2471 14.7 5.24967H13.3ZM11.0833 7.46634C9.8591 7.46634 8.86667 6.47391 8.86667 5.24967H7.46667C7.46667 7.2471 9.0859 8.86634 11.0833 8.86634V7.46634ZM8.86667 5.24967C8.86667 4.02544 9.8591 3.03301 11.0833 3.03301V1.63301C9.0859 1.63301 7.46667 3.25224 7.46667 5.24967H8.86667ZM11.0833 3.03301C12.3076 3.03301 13.3 4.02544 13.3 5.24967H14.7C14.7 3.25224 13.0808 1.63301 11.0833 1.63301V3.03301ZM17.9667 5.83301C17.9667 6.73507 17.2354 7.46634 16.3333 7.46634V8.86634C18.0086 8.86634 19.3667 7.50827 19.3667 5.83301H17.9667ZM16.3333 7.46634C15.4313 7.46634 14.7 6.73507 14.7 5.83301H13.3C13.3 7.50827 14.6581 8.86634 16.3333 8.86634V7.46634ZM14.7 5.83301C14.7 4.93094 15.4313 4.19967 16.3333 4.19967V2.79967C14.6581 2.79967 13.3 4.15774 13.3 5.83301H14.7ZM16.3333 4.19967C17.2354 4.19967 17.9667 4.93094 17.9667 5.83301H19.3667C19.3667 4.15774 18.0086 2.79967 16.3333 2.79967V4.19967ZM10.3722 12.1978L14.4556 8.69782L13.5444 7.63486L9.46111 11.1349L10.3722 12.1978ZM13.5444 8.69782L17.6278 12.1978L18.5389 11.1349L14.4556 7.63486L13.5444 8.69782Z" fill="#94A3B8"/>
</g>
</svg>
