<svg width="64" height="60" viewBox="0 0 64 60" fill="none" xmlns="http://www.w3.org/2000/svg">
<path id="Vector" fill-rule="evenodd" clip-rule="evenodd" d="M73.7115 20.2586C73.3159 19.8606 72.7957 19.6131 72.2393 19.5582C71.683 19.5033 71.1249 19.6444 70.6603 19.9576C70.1956 20.2707 69.8531 20.7365 69.691 21.2755C69.529 21.8145 69.5574 22.3935 69.7715 22.9138C69.9856 23.4341 70.372 23.8635 70.8651 24.1289C71.3582 24.3943 71.9273 24.4792 72.4756 24.3693C73.0238 24.2593 73.5173 23.9613 73.8719 23.5259C74.2265 23.0905 74.4203 22.5447 74.4203 21.9814C74.4207 21.6614 74.3582 21.3444 74.2365 21.0487C74.1149 20.7531 73.9364 20.4846 73.7115 20.2586ZM72.0015 16.2299C73.3228 16.2294 74.6034 16.6906 75.6251 17.5348C76.6467 18.379 77.3462 19.554 77.6043 20.8597C77.8624 22.1653 77.6633 23.5207 77.0407 24.6949C76.4181 25.8691 75.4106 26.7895 74.19 27.2991C72.9694 27.8088 71.6111 27.8762 70.3466 27.49C69.0822 27.1037 67.9898 26.2876 67.2556 25.1807C66.5215 24.0739 66.191 22.7448 66.3204 21.4199C66.4499 20.0951 67.0313 18.8564 67.9656 17.9151C68.4949 17.3801 69.124 16.9558 69.8166 16.6666C70.5092 16.3774 71.2518 16.229 72.0015 16.2299ZM89.0181 36.2957C88.6226 35.8977 88.1023 35.6502 87.546 35.5953C86.9897 35.5404 86.4316 35.6815 85.967 35.9947C85.5023 36.3078 85.1598 36.7736 84.9977 37.3126C84.8356 37.8516 84.8641 38.4306 85.0782 38.9509C85.2922 39.4712 85.6787 39.9006 86.1718 40.166C86.6649 40.4314 87.234 40.5164 87.7822 40.4064C88.3305 40.2965 88.824 39.9984 89.1786 39.563C89.5332 39.1276 89.727 38.5818 89.727 38.0186C89.7273 37.6985 89.6649 37.3815 89.5432 37.0859C89.4216 36.7902 89.2431 36.5217 89.0181 36.2957ZM87.3082 32.2671C88.629 32.2665 89.909 32.7274 90.9303 33.5712C91.9515 34.415 92.6508 35.5895 92.9089 36.8946C93.167 38.1996 92.968 39.5545 92.3458 40.7282C91.7235 41.902 90.7166 42.8221 89.4965 43.3316C88.2765 43.8412 86.9188 43.9088 85.6548 43.5228C84.3908 43.1368 83.2988 42.3212 82.5648 41.2149C81.8308 40.1087 81.5003 38.7802 81.6295 37.4558C81.7587 36.1315 82.3397 34.8933 83.2735 33.9522C83.8027 33.4172 84.4318 32.9929 85.1244 32.7037C85.8171 32.4145 86.5585 32.2661 87.3082 32.2671ZM20.7558 22.3956H9.4012V25.3917H20.7558V22.3956ZM26.1279 22.3956H24.0488V25.3917H26.1313V22.3956H26.1279ZM40.7721 22.3956H29.4187V25.3917H40.7721V22.3956ZM20.7558 28.7073H12.0114V46.8483H20.7558V28.7073ZM26.1279 28.7073H24.0488V46.8483H26.1313V28.7073H26.1279ZM38.1631 28.7073H29.4187V46.8483H38.1631V28.7073ZM25.068 15.3343C24.8347 14.9589 24.9457 15.1381 25.068 15.3343V15.3343ZM22.2732 17.064C21.9041 16.465 22.1226 16.8244 22.2732 17.064V17.064ZM23.1735 19.0812H20.7377C18.7845 18.2725 17.0412 17.0235 15.6419 15.4301C15.36 15.116 15.1647 14.7328 15.0757 14.3189C15.0781 14.2519 15.0964 14.1864 15.1291 14.1281C15.1618 14.0697 15.208 14.0201 15.2636 13.9834C16.3777 13.3064 17.651 12.9417 18.9519 12.9269C19.6959 12.8482 21.3888 15.6173 22.2766 17.0708C22.3774 17.2351 22.4442 17.3458 22.2766 17.0708L22.4555 17.3606C22.7463 17.8725 22.9774 18.4165 23.144 18.9819L23.1769 19.088L23.1735 19.0812ZM29.5512 19.0812C31.5042 18.2722 33.2474 17.0232 34.647 15.4301C34.9295 15.1164 35.1248 14.733 35.2132 14.3189C35.2114 14.2519 35.1934 14.1863 35.1609 14.1279C35.1283 14.0694 35.0821 14.0199 35.0263 13.9834C33.9122 13.3066 32.639 12.9418 31.3381 12.9269C30.593 12.8482 28.9012 15.6173 28.0122 17.0708L27.8356 17.3583C27.5444 17.8701 27.313 18.4142 27.1459 18.9796L27.1131 19.0857H29.5534L29.5512 19.0812ZM25.1461 15.4541L25.2186 15.34C26.4801 13.276 28.8808 9.34548 31.6801 9.64213C33.642 9.70429 35.5438 10.3384 37.1552 11.4676C37.6234 11.8332 37.9922 12.3122 38.2272 12.86C38.4623 13.4078 38.5559 14.0066 38.4994 14.6007C38.3668 15.6587 37.9344 16.6557 37.2538 17.4724C36.7875 18.0626 36.2657 18.6059 35.6956 19.0949H41.7936C42.3956 19.0955 42.9729 19.3366 43.3988 19.7655C43.8246 20.1943 44.0643 20.7758 44.0652 21.3824V26.4323C44.0654 26.7328 44.0067 27.0305 43.8924 27.3081C43.7782 27.5858 43.6106 27.8379 43.3993 28.0501H43.3903C43.1807 28.2626 42.9316 28.4312 42.6572 28.5464C42.3828 28.6615 42.0885 28.7208 41.7913 28.721H41.4516V48.5084C41.4516 48.9481 41.2782 49.3697 40.9697 49.6806C40.6611 49.9915 40.2426 50.1662 39.8062 50.1662H10.3637C9.92756 50.1659 9.50934 49.9911 9.20102 49.6802C8.89269 49.3694 8.7195 48.9479 8.7195 48.5084V28.7073H8.37978C8.08253 28.7071 7.78825 28.6478 7.51385 28.5327C7.23944 28.4175 6.99033 28.2489 6.78082 28.0364H6.77403C6.56276 27.8242 6.39518 27.5721 6.28091 27.2944C6.16664 27.0168 6.10794 26.7191 6.10818 26.4186V21.3688C6.10908 20.7621 6.34873 20.1806 6.77458 19.7518C7.20042 19.3229 7.77769 19.0818 8.37978 19.0812H14.5955C14.0252 18.5925 13.5033 18.0491 13.0373 17.4587C12.3563 16.6423 11.9238 15.6451 11.7917 14.587C11.7352 13.9929 11.8288 13.3941 12.0639 12.8463C12.2989 12.2985 12.6677 11.8195 13.1359 11.4539C14.7472 10.3245 16.6491 9.6904 18.611 9.62843C21.4092 9.33179 23.811 13.2635 25.0725 15.3275L25.1473 15.4495L25.1461 15.4541ZM25.1461 15.4541L25.0691 15.3297L25.145 15.4518L25.1461 15.4541ZM73.7522 43.3183C73.5181 43.6677 73.1604 43.9139 72.7522 44.0065C72.344 44.0992 71.916 44.0313 71.5558 43.8168C71.1956 43.6022 70.9302 43.2572 70.814 42.8522C70.6977 42.4472 70.7393 42.0128 70.9303 41.6376L85.5632 16.6852C85.6729 16.4979 85.8182 16.3342 85.9907 16.2035C86.1633 16.0728 86.3597 15.9776 86.5687 15.9233C86.7777 15.8691 86.9954 15.8569 87.2091 15.8873C87.4228 15.9178 87.6285 15.9904 87.8144 16.101C88.0003 16.2116 88.1627 16.358 88.2925 16.5318C88.4222 16.7056 88.5167 16.9035 88.5705 17.1141C88.6244 17.3248 88.6365 17.544 88.6062 17.7593C88.576 17.9747 88.5039 18.1819 88.3942 18.3692L73.7522 43.3183ZM52.7575 15.4347C52.7517 15.2134 52.79 14.9932 52.8701 14.7871C52.9501 14.5809 53.0704 14.393 53.2237 14.2345C53.377 14.0759 53.5603 13.9499 53.7627 13.8638C53.9651 13.7778 54.1826 13.7334 54.4023 13.7334C54.622 13.7334 54.8395 13.7778 55.0419 13.8638C55.2443 13.9499 55.4276 14.0759 55.5809 14.2345C55.7342 14.393 55.8545 14.5809 55.9345 14.7871C56.0146 14.9932 56.0529 15.2134 56.0471 15.4347V21.7453C56.0359 22.1773 55.8576 22.5878 55.5504 22.8893C55.2432 23.1908 54.8312 23.3596 54.4023 23.3596C53.9734 23.3596 53.5614 23.1908 53.2542 22.8893C52.947 22.5878 52.7687 22.1773 52.7575 21.7453V15.4347ZM52.7575 26.8441C52.7517 26.6229 52.79 26.4027 52.8701 26.1965C52.9501 25.9904 53.0704 25.8025 53.2237 25.6439C53.377 25.4853 53.5603 25.3593 53.7627 25.2733C53.9651 25.1872 54.1826 25.1429 54.4023 25.1429C54.622 25.1429 54.8395 25.1872 55.0419 25.2733C55.2443 25.3593 55.4276 25.4853 55.5809 25.6439C55.7342 25.8025 55.8545 25.9904 55.9345 26.1965C56.0146 26.4027 56.0529 26.6229 56.0471 26.8441V33.1536C56.0529 33.3749 56.0146 33.5951 55.9345 33.8012C55.8545 34.0074 55.7342 34.1953 55.5809 34.3538C55.4276 34.5124 55.2443 34.6384 55.0419 34.7245C54.8395 34.8105 54.622 34.8549 54.4023 34.8549C54.1826 34.8549 53.9651 34.8105 53.7627 34.7245C53.5603 34.6384 53.377 34.5124 53.2237 34.3538C53.0704 34.1953 52.9501 34.0074 52.8701 33.8012C52.79 33.5951 52.7517 33.3749 52.7575 33.1536V26.8441ZM52.7575 38.2536C52.7687 37.8216 52.947 37.4111 53.2542 37.1096C53.5614 36.808 53.9734 36.6393 54.4023 36.6393C54.8312 36.6393 55.2432 36.808 55.5504 37.1096C55.8576 37.4111 56.0359 37.8216 56.0471 38.2536V44.5642C56.0529 44.7854 56.0146 45.0057 55.9345 45.2118C55.8545 45.4179 55.7342 45.6058 55.5809 45.7644C55.4276 45.923 55.2443 46.049 55.0419 46.1351C54.8395 46.2211 54.622 46.2654 54.4023 46.2654C54.1826 46.2654 53.9651 46.2211 53.7627 46.1351C53.5603 46.049 53.377 45.923 53.2237 45.7644C53.0704 45.6058 52.9501 45.4179 52.8701 45.2118C52.79 45.0057 52.7517 44.7854 52.7575 44.5642V38.2536ZM52.7575 49.663V54.5041C51.4301 54.8156 50.2158 55.4953 49.252 56.4662C48.2881 57.4371 47.6133 58.6604 47.3038 59.9977H1.16751C0.858506 59.9956 0.562752 59.871 0.34425 59.6509C0.125749 59.4307 0.00207689 59.1327 0 58.8214V1.17631C0.00207689 0.864982 0.125749 0.566998 0.34425 0.346848C0.562752 0.126698 0.858506 0.00209255 1.16751 0H47.3095C47.6166 1.33752 48.2899 2.56141 49.253 3.53256C50.2161 4.5037 51.4302 5.18314 52.7575 5.49365V10.3347C52.7687 10.7667 52.947 11.1772 53.2542 11.4787C53.5614 11.7802 53.9734 11.949 54.4023 11.949C54.8312 11.949 55.2432 11.7802 55.5504 11.4787C55.8576 11.1772 56.0359 10.7667 56.0471 10.3347V5.49365C57.3745 5.1823 58.5887 4.50266 59.5524 3.53173C60.5161 2.56079 61.1906 1.33735 61.4996 0H100.832C101.141 0.00209255 101.437 0.126698 101.656 0.346848C101.874 0.566998 101.998 0.864982 102 1.17631V58.8237C101.998 59.135 101.874 59.433 101.656 59.6531C101.437 59.8733 101.141 59.9979 100.832 60H61.4996C61.1906 58.6626 60.5161 57.4392 59.5524 56.4683C58.5887 55.4973 57.3745 54.8177 56.0471 54.5063V49.6653C56.0359 49.2333 55.8576 48.8228 55.5504 48.5213C55.2432 48.2198 54.8312 48.051 54.4023 48.051C53.9734 48.051 53.5614 48.2198 53.2542 48.5213C52.947 48.8228 52.7687 49.2333 52.7575 49.6653V49.663Z" fill="#CDE4FD" fill-opacity="0.4"/>
</svg>
