<svg width="16" height="16" viewBox="0 0 16 16" fill="none" xmlns="http://www.w3.org/2000/svg">
<g id="info -Circle">
<g id="Vector">
<path d="M8 1C11.866 1 15 4.13401 15 8C15 11.866 11.866 15 8 15C4.13401 15 1 11.866 1 8C1 4.13401 4.13401 1 8 1ZM8 0C3.58172 3.86258e-07 -3.86258e-07 3.58172 0 8C3.86258e-07 12.4183 3.58172 16 8 16C12.4183 16 16 12.4183 16 8C16 3.58172 12.4183 -3.86258e-07 8 0Z" fill="#1E293B"/>
<path d="M8.99846 5C8.99846 5.55229 8.55074 6 7.99846 6C7.44617 6 6.99846 5.55229 6.99846 5C6.99846 4.44772 7.44617 4 7.99846 4C8.55074 4 8.99846 4.44772 8.99846 5Z" fill="#1E293B"/>
<path d="M8.9005 11.005C8.95377 11.5377 8.53541 12 8 12C7.46459 12 7.04623 11.5377 7.0995 11.005L7.45025 7.49752C7.47849 7.21508 7.71616 7 8 7C8.28384 7 8.52151 7.21508 8.54975 7.49752L8.9005 11.005Z" fill="#1E293B"/>
</g>
</g>
</svg>
