<svg width="28" height="28" viewBox="0 0 28 28" fill="none" xmlns="http://www.w3.org/2000/svg">
<g id="Icons">
<path id="Vector" d="M5.83333 5.83333H12.8333C13.475 5.83333 14 5.30833 14 4.66667C14 4.025 13.475 3.5 12.8333 3.5H5.83333C4.55 3.5 3.5 4.55 3.5 5.83333V22.1667C3.5 23.45 4.55 24.5 5.83333 24.5H12.8333C13.475 24.5 14 23.975 14 23.3333C14 22.6917 13.475 22.1667 12.8333 22.1667H5.83333V5.83333Z" fill="#94A3B8"/>
<path id="Vector_2" d="M24.0917 13.592L20.8367 10.337C20.7555 10.2536 20.6514 10.1964 20.5375 10.1725C20.4236 10.1487 20.3052 10.1594 20.1975 10.2033C20.0898 10.2471 19.9975 10.3221 19.9327 10.4187C19.8678 10.5152 19.8332 10.629 19.8333 10.7453V12.8336H11.6667C11.025 12.8336 10.5 13.3586 10.5 14.0003C10.5 14.642 11.025 15.167 11.6667 15.167H19.8333V17.2553C19.8333 17.7803 20.4633 18.037 20.825 17.6636L24.08 14.4086C24.3133 14.187 24.3133 13.8136 24.0917 13.592Z" fill="#94A3B8"/>
</g>
</svg>
