<svg width="113" height="32" viewBox="0 0 113 32" fill="none" xmlns="http://www.w3.org/2000/svg">
<g id="Logo" clip-path="url(#clip0_800_15293)">
<path id="Vector" d="M24.1444 11.498L20.1741 23.057L17.1518 14.1749L16.2037 11.498H13.2407L12.2926 14.1749L9.27037 23.057L5.3 11.498H0.5L6.9 30.114L7.43333 31.7566H11.1667L11.7 30.114L14.7222 21.2319L17.7444 30.114L18.337 31.7566H22.0111L22.6037 30.114L28.9444 11.498H24.1444Z" fill="#EB7E23"/>
<path id="Vector_2" d="M35.0474 11.1934C29.4178 11.1934 24.9141 15.8778 24.9141 21.5964C24.9141 27.315 29.477 31.9994 35.0474 31.9994C40.6178 31.9994 45.1807 27.3759 45.1807 21.5964C45.1807 15.8169 40.6178 11.1934 35.0474 11.1934ZM35.0474 27.8017C31.7289 27.8017 29.003 25.0032 29.003 21.5964C29.003 18.1896 31.7289 15.3911 35.0474 15.3911C38.3659 15.3911 41.0918 18.1896 41.0918 21.5964C41.0918 25.0032 38.3659 27.8017 35.0474 27.8017Z" fill="#EB7E23"/>
<path id="Vector_3" d="M51.2251 11.1934C45.5955 11.1934 41.0918 15.8778 41.0918 21.5964C41.0918 27.315 45.6548 31.9994 51.2251 31.9994C56.7955 31.9994 61.3585 27.315 61.3585 21.5964C61.4177 15.8169 56.8548 11.1934 51.2251 11.1934ZM51.2251 27.8017C47.9066 27.8017 45.1807 25.0032 45.1807 21.5964C45.1807 18.1896 47.9066 15.3911 51.2251 15.3911C54.5436 15.3911 57.2696 18.1896 57.2696 21.5964C57.2696 25.0032 54.6029 27.8017 51.2251 27.8017Z" fill="#EB7E23"/>
<path id="Vector_4" d="M84.8267 11.1934C79.1971 11.1934 74.6934 15.8778 74.6934 21.5964C74.6934 27.3759 79.2563 31.9994 84.8267 31.9994C90.4563 31.9994 94.96 27.315 94.96 21.5964C94.96 15.8778 90.4563 11.1934 84.8267 11.1934ZM84.8267 27.8017C81.5082 27.8017 78.7823 25.0032 78.7823 21.5964C78.7823 18.1896 81.5082 15.3911 84.8267 15.3911C88.1452 15.3911 90.8711 18.1896 90.8711 21.5964C90.9304 25.0032 88.2045 27.8017 84.8267 27.8017Z" fill="#EB7E23"/>
<path id="Vector_5" d="M101.063 11.1934C95.4334 11.1934 90.9297 15.8778 90.9297 21.5964C90.9297 27.315 95.4926 31.9994 101.063 31.9994C106.693 31.9994 111.196 27.315 111.196 21.5964C111.196 15.8778 106.633 11.1934 101.063 11.1934ZM101.063 27.8017C97.7445 27.8017 95.0186 25.0032 95.0186 21.5964C95.0186 18.1896 97.7445 15.3911 101.063 15.3911C104.382 15.3911 107.107 18.1896 107.107 21.5964C107.107 25.0032 104.382 27.8017 101.063 27.8017Z" fill="#EB7E23"/>
<path id="Vector_6" d="M78.1882 20.5019V20.2586C78.1289 17.8251 77.1808 15.5741 75.5215 13.8707C74.6919 13.019 73.6845 12.3498 72.6178 11.8631C71.4919 11.3764 70.2475 11.1331 69.003 11.1331C67.6993 11.1331 66.3956 11.3764 65.1512 11.8631C64.6771 12.0456 64.2623 12.289 63.7882 12.5323V0H59.3438V31.3916H63.7882V20.5627C63.8475 19.4068 64.3215 18.3118 65.1512 17.5817C66.1586 16.6084 67.4623 16 68.8845 16C70.2475 15.9392 71.5512 16.4867 72.44 17.5209C73.2104 18.2509 73.6845 19.2852 73.7437 20.3194V31.3916H78.1882V20.5019C78.1882 20.5627 78.1882 20.5627 78.1882 20.5019Z" fill="#EB7E23"/>
<path id="Vector_7" d="M109.656 10.2204V11.2546H109.182V8.63867H109.952C110.13 8.63867 110.248 8.63867 110.426 8.69951C110.545 8.69951 110.663 8.76034 110.722 8.82118C110.782 8.88202 110.841 8.94285 110.9 9.06453C110.959 9.24704 110.959 9.42955 110.9 9.61206C110.9 9.67289 110.841 9.73373 110.782 9.79457C110.722 9.8554 110.663 9.91624 110.604 9.97707C110.545 10.0379 110.426 10.0379 110.367 10.0987C110.426 10.1596 110.485 10.1596 110.545 10.2204L111.196 11.1938H110.722C110.663 11.1938 110.604 11.133 110.545 11.0721L110.011 10.2204L109.952 10.1596C109.893 10.1596 109.893 10.1596 109.833 10.1596L109.656 10.2204ZM109.656 9.8554H109.952C110.011 9.8554 110.13 9.8554 110.189 9.79457C110.248 9.79457 110.308 9.73373 110.367 9.73373C110.426 9.67289 110.426 9.67289 110.485 9.61206C110.485 9.55122 110.485 9.49038 110.485 9.42955C110.485 9.30787 110.426 9.1862 110.367 9.12536C110.248 9.06453 110.13 9.00369 109.952 9.00369H109.656V9.8554Z" fill="#EB7E23"/>
<path id="Vector_8" d="M110.01 12.5312C108.647 12.5312 107.521 11.3753 107.521 9.97603C107.521 8.57679 108.647 7.4209 110.01 7.4209C111.373 7.4209 112.499 8.57679 112.499 9.97603C112.499 11.3753 111.373 12.4703 110.01 12.5312ZM110.01 7.84675C108.884 7.84675 107.936 8.7593 107.936 9.97603C107.936 11.1319 108.825 12.1053 110.01 12.1053C111.136 12.1053 112.084 11.1928 112.084 9.97603C112.084 8.7593 111.136 7.84675 110.01 7.84675Z" fill="#EB7E23"/>
</g>
<defs>
<clipPath id="clip0_800_15293">
<rect width="112" height="32" fill="white" transform="translate(0.5)"/>
</clipPath>
</defs>
</svg>
