<svg width="16" height="16" viewBox="0 0 16 16" fill="none" xmlns="http://www.w3.org/2000/svg">
<g id="Menu">
<rect x="0.75" y="0.75" width="14.5" height="14.5" rx="7.25" fill="#6399DB"/>
<rect x="0.75" y="0.75" width="14.5" height="14.5" rx="7.25" stroke="white" stroke-width="1.5"/>
<path id="Vector" d="M4.44444 10.3333C4.31852 10.3333 4.21304 10.2907 4.128 10.2053C4.04267 10.1203 4 10.0148 4 9.88889C4 9.76296 4.04267 9.65748 4.128 9.57244C4.21304 9.48711 4.31852 9.44444 4.44444 9.44444H11.5556C11.6815 9.44444 11.787 9.48711 11.872 9.57244C11.9573 9.65748 12 9.76296 12 9.88889C12 10.0148 11.9573 10.1203 11.872 10.2053C11.787 10.2907 11.6815 10.3333 11.5556 10.3333H4.44444ZM4.44444 8.11111C4.31852 8.11111 4.21304 8.06844 4.128 7.98311C4.04267 7.89807 4 7.79259 4 7.66667C4 7.54074 4.04267 7.43511 4.128 7.34978C4.21304 7.26474 4.31852 7.22222 4.44444 7.22222H11.5556C11.6815 7.22222 11.787 7.26474 11.872 7.34978C11.9573 7.43511 12 7.54074 12 7.66667C12 7.79259 11.9573 7.89807 11.872 7.98311C11.787 8.06844 11.6815 8.11111 11.5556 8.11111H4.44444ZM4.44444 5.88889C4.31852 5.88889 4.21304 5.84637 4.128 5.76133C4.04267 5.676 4 5.57037 4 5.44444C4 5.31852 4.04267 5.21289 4.128 5.12756C4.21304 5.04252 4.31852 5 4.44444 5H11.5556C11.6815 5 11.787 5.04252 11.872 5.12756C11.9573 5.21289 12 5.31852 12 5.44444C12 5.57037 11.9573 5.676 11.872 5.76133C11.787 5.84637 11.6815 5.88889 11.5556 5.88889H4.44444Z" fill="white"/>
</g>
</svg>
