<svg width="70" height="70" viewBox="0 0 70 70" fill="none" xmlns="http://www.w3.org/2000/svg">
<g id="XMLID_591_" clip-path="url(#clip0_3186_679)">
<path id="XMLID_9_" d="M16.1997 21.9893C19.3997 21.9893 21.9997 19.3893 21.9997 16.1893C21.9997 12.9893 19.4997 10.2893 16.1997 10.2893C12.8997 10.2893 10.3997 12.8893 10.3997 16.0893C10.3997 19.2893 12.9997 21.9893 16.1997 21.9893ZM12.8997 15.5893H17.0997V13.6893L19.5997 16.0893L17.0997 18.5893V16.6893H12.8997V15.5893Z" fill="#64748B"/>
<path id="XMLID_8_" d="M9.49963 16.1896H3.69963V14.4896H9.79963C9.99963 13.5896 10.3996 12.6896 10.9996 11.9896H3.69963V6.98965H7.89963L6.19963 9.28965L7.49963 10.2896L9.49963 7.58965L10.2996 6.38965L11.0996 7.58965L12.9996 10.1896C13.2996 10.1896 13.3996 10.0896 13.5996 9.98965L14.4996 9.28965L12.7996 6.98965H16.9996V9.58965C17.5996 9.58965 18.0996 9.78965 18.6996 9.98965V6.98965C18.6996 6.08965 17.8996 5.28965 16.9996 5.28965H15.1996C15.2996 5.08965 15.3996 4.68965 15.3996 4.48965C15.3996 3.08965 14.2996 1.98965 12.8996 1.98965C11.9996 1.98965 11.1996 2.38965 10.7996 3.08965L10.3996 3.68965L9.99963 3.08965C9.49963 2.38965 8.69963 1.98965 7.79963 1.98965C6.39963 1.98965 5.29963 3.08965 5.29963 4.48965C5.29963 4.68965 5.39963 5.08965 5.49963 5.28965H3.69963C2.79963 5.28965 1.99963 6.08965 1.99963 6.98965V16.1896C1.99963 17.0896 2.79963 17.8896 3.69963 17.8896H9.79963C9.59963 17.2896 9.49963 16.6896 9.49963 16.1896ZM12.7996 3.68965C13.2996 3.68965 13.5996 3.98965 13.5996 4.48965C13.5996 4.98965 13.2996 5.28965 12.7996 5.28965C12.2996 5.28965 11.9996 4.98965 11.9996 4.48965C11.9996 3.98965 12.2996 3.68965 12.7996 3.68965ZM7.79963 3.68965C8.29963 3.68965 8.59963 3.98965 8.59963 4.48965C8.59963 4.98965 8.29963 5.28965 7.79963 5.28965C7.29963 5.28965 6.99963 4.98965 6.99963 4.48965C6.99963 3.98965 7.29963 3.68965 7.79963 3.68965Z" fill="#64748B"/>
</g>
<defs>
<clipPath id="clip0_3186_679">
<rect width="70" height="70" fill="white" transform="matrix(1 0 0 -1 0 23.9893)"/>
</clipPath>
</defs>
</svg>
