<svg width="28" height="28" viewBox="0 0 28 28" fill="none" xmlns="http://www.w3.org/2000/svg">
<g id="Icons">
<path id="Vector" d="M7.45809 8.45607L7.45825 8.45596C7.90861 8.14801 8.46454 7.96638 9.34502 7.87208C9.34503 7.87208 9.34504 7.87208 9.34504 7.87208L9.35569 7.97151L7.45809 8.45607ZM7.45809 8.45607C7.27423 8.58232 7.10156 8.72414 6.94199 8.87996C6.55119 9.26104 6.26578 9.7706 5.9995 10.6142L5.99944 10.6144M7.45809 8.45607L5.99944 10.6144M5.99944 10.6144C5.72914 11.4758 5.50173 12.6019 5.18597 14.1854C4.73152 16.4553 4.40669 18.0866 4.31629 19.3498C4.22575 20.5985 4.37574 21.3604 4.76152 21.9537C4.91716 22.1931 5.10034 22.417 5.30516 22.6171L5.30518 22.6171M5.99944 10.6144L5.30518 22.6171M5.30518 22.6171C5.81178 23.1115 6.52883 23.4077 7.77162 23.5652L7.77167 23.5652M5.30518 22.6171L7.77167 23.5652M7.77167 23.5652C9.02775 23.7237 10.6919 23.7247 13.0062 23.7247H14.993C17.3073 23.7247 18.9691 23.7237 20.2264 23.5652L20.2264 23.5652M7.77167 23.5652L20.2264 23.5652M20.2264 23.5652C21.4692 23.4077 22.1863 23.1115 22.6929 22.6171L22.6929 22.617L20.2264 23.5652ZM23.6829 19.3486L23.6829 19.3487C23.7723 20.5985 23.6223 21.3603 23.2366 21.9536C23.2365 21.9537 23.2365 21.9537 23.2365 21.9537L23.1527 21.8992L23.6829 19.3486ZM23.6829 19.3486C23.5914 18.0855 23.2666 16.4554 22.8133 14.1854L22.8132 14.1854C22.4964 12.6022 22.2701 11.4747 21.9986 10.6144M23.6829 19.3486L21.9986 10.6144M21.9986 10.6144C21.7334 9.77057 21.4468 9.26107 21.0561 8.88004C21.0561 8.88 21.056 8.87995 21.056 8.87991L20.9862 8.95151C20.8311 8.79972 20.6633 8.66155 20.4845 8.53851L21.9986 10.6144ZM11.274 6.12934V6.2303L11.375 6.22934C11.8621 6.22468 12.3866 6.22467 12.9549 6.22467H15.0432C15.6115 6.22467 16.1371 6.22468 16.6231 6.22934L16.724 6.23031V6.12934V5.83301C16.724 5.11029 16.4369 4.41718 15.9259 3.90614C15.4149 3.39511 14.7217 3.10801 13.999 3.10801C13.2763 3.10801 12.5832 3.39511 12.0722 3.90614C11.5611 4.41718 11.274 5.11029 11.274 5.83301V6.12934ZM18.274 6.19117V6.29117H18.3716C18.5211 6.30205 18.6704 6.31547 18.8195 6.33143C19.8351 6.44133 20.6744 6.66926 21.4161 7.17782L21.4162 7.17785C21.6732 7.35385 21.9147 7.5516 22.1379 7.76893C22.7819 8.397 23.1708 9.17541 23.4773 10.1493C23.7751 11.0985 24.0179 12.3057 24.3227 13.8322C24.3227 13.8323 24.3228 13.8325 24.3228 13.8326L24.3436 13.9425L24.3438 13.9435C24.7853 16.1427 25.129 17.867 25.2288 19.2383C25.3296 20.6379 25.1867 21.7975 24.5365 22.7978L24.5365 22.7979C24.3179 23.1343 24.0628 23.4455 23.7758 23.7258L23.7758 23.7258C22.9221 24.5602 21.8123 24.9267 20.4206 25.1028C19.0563 25.2745 17.2985 25.2747 15.0549 25.2747H12.9432C10.7007 25.2747 8.94173 25.2745 7.57741 25.1028C6.18584 24.9267 5.07709 24.5602 4.22221 23.7258C3.9357 23.445 3.68026 23.1345 3.46155 22.7979C2.8113 21.7963 2.66847 20.6378 2.77043 19.2383L2.77043 19.2382C2.86871 17.8716 3.21159 16.1545 3.64863 13.9657L3.65308 13.9435L3.65309 13.9434L3.67524 13.8327L3.67525 13.8326L3.67884 13.8147C3.98321 12.2964 4.22406 11.0948 4.52077 10.1493C4.82727 9.17544 5.21616 8.39705 5.86012 7.76899C6.08333 7.55164 6.3248 7.35387 6.58186 7.17785L6.5819 7.17782C7.32372 6.66925 8.16298 6.44132 9.17862 6.33143L9.1789 6.3314C9.32419 6.31525 9.4745 6.30252 9.63141 6.2909L9.72402 6.28404V6.19117V5.83301C9.72402 4.69921 10.1744 3.61184 10.9761 2.81013C11.7779 2.00841 12.8652 1.55801 13.999 1.55801C15.1328 1.55801 16.2202 2.00841 17.0219 2.81013C17.8236 3.61184 18.274 4.69921 18.274 5.83301V6.19117ZM11.4291 17.2414L11.4291 17.2414C11.6171 17.7727 11.9652 18.2326 12.4255 18.5579C12.8857 18.8832 13.4354 19.0579 13.999 19.0579C14.5626 19.0579 15.1124 18.8832 15.5726 18.5579C16.0328 18.2326 16.3809 17.7727 16.569 17.2414L16.569 17.2413C16.6029 17.1453 16.6554 17.0569 16.7235 16.9812C16.7916 16.9055 16.8739 16.8439 16.9658 16.8C17.0577 16.7561 17.1573 16.7307 17.259 16.7253C17.3607 16.7199 17.4624 16.7346 17.5585 16.7685C17.6545 16.8025 17.7429 16.855 17.8186 16.9231C17.8943 16.9912 17.9559 17.0735 17.9998 17.1654C18.0437 17.2572 18.0691 17.3569 18.0744 17.4586C18.0798 17.5603 18.0652 17.662 18.0312 17.758C17.7365 18.5917 17.1905 19.3136 16.4685 19.8241C15.7465 20.3347 14.8839 20.6089 13.9996 20.6089C13.1153 20.6089 12.2528 20.3347 11.5307 19.8241C10.8087 19.3136 10.2627 18.5917 9.96797 17.758C9.89949 17.5643 9.91077 17.3512 9.99932 17.1658C10.0879 16.9803 10.2465 16.8377 10.4402 16.7691C10.6339 16.7006 10.847 16.7119 11.0324 16.8005C11.2179 16.889 11.3605 17.0476 11.4291 17.2414Z" fill="#94A3B8" stroke="white" stroke-width="0.2"/>
</g>
</svg>
