<svg width="28" height="28" viewBox="0 0 28 28" fill="none" xmlns="http://www.w3.org/2000/svg">
<g id="person">
<g id="Subtract">
<path d="M13.9997 14.0007C17.2213 14.0007 19.833 11.389 19.833 8.16732C19.833 4.94566 17.2213 2.33398 13.9997 2.33398C10.778 2.33398 8.16634 4.94566 8.16634 8.16732C8.16634 11.389 10.778 14.0007 13.9997 14.0007ZM17.8886 8.16732C17.8886 10.3151 16.1474 12.0562 13.9997 12.0562C11.8519 12.0562 10.1108 10.3151 10.1108 8.16732C10.1108 6.01954 11.8519 4.27843 13.9997 4.27843C16.1474 4.27843 17.8886 6.01954 17.8886 8.16732Z" fill="#64748B"/>
<path d="M25.6663 23.7229C25.6663 25.6673 23.7219 25.6673 23.7219 25.6673H4.27745C4.27745 25.6673 2.33301 25.6673 2.33301 23.7229C2.33301 21.7784 4.27745 15.9451 13.9997 15.9451C23.7219 15.9451 25.6663 21.7784 25.6663 23.7229ZM23.7219 23.7161C23.7191 23.2362 23.4229 21.7987 22.1039 20.4797C20.8356 19.2115 18.4507 17.8895 13.9997 17.8895C9.54861 17.8895 7.16369 19.2115 5.89542 20.4797C4.57642 21.7987 4.28022 23.2362 4.27745 23.7161H23.7219Z" fill="#64748B"/>
</g>
</g>
</svg>
