<svg width="24" height="20" viewBox="0 0 24 20" fill="none" xmlns="http://www.w3.org/2000/svg">
<path d="M14.8438 4.32812C16.4844 5.96875 17.5 8.11719 17.5 10.4609C17.5 15.2266 13.5156 19.1328 8.71094 19.1328C7.26562 19.1328 5.85938 18.7422 4.57031 18.0781L0 19.25L1.21094 14.7578C0.46875 13.4688 0.0390625 11.9844 0.0390625 10.4219C0.0390625 5.65625 3.94531 1.75 8.71094 1.75C11.0547 1.75 13.2422 2.6875 14.8438 4.32812ZM8.71094 17.6484C12.6953 17.6484 16.0156 14.4062 16.0156 10.4609C16.0156 8.50781 15.1953 6.71094 13.8281 5.34375C12.4609 3.97656 10.6641 3.23438 8.75 3.23438C4.76562 3.23438 1.52344 6.47656 1.52344 10.4219C1.52344 11.7891 1.91406 13.1172 2.61719 14.2891L2.8125 14.5625L2.07031 17.2188L4.80469 16.4766L5.03906 16.6328C6.17188 17.2969 7.42188 17.6484 8.71094 17.6484ZM12.6953 12.2578C12.8906 12.375 13.0469 12.4141 13.0859 12.5312C13.1641 12.6094 13.1641 13.0391 12.9688 13.5469C12.7734 14.0547 11.9141 14.5234 11.5234 14.5625C10.8203 14.6797 10.2734 14.6406 8.90625 14.0156C6.71875 13.0781 5.3125 10.8906 5.19531 10.7734C5.07812 10.6172 4.33594 9.60156 4.33594 8.50781C4.33594 7.45312 4.88281 6.94531 5.07812 6.71094C5.27344 6.47656 5.50781 6.4375 5.66406 6.4375C5.78125 6.4375 5.9375 6.4375 6.05469 6.4375C6.21094 6.4375 6.36719 6.39844 6.5625 6.82812C6.71875 7.25781 7.1875 8.3125 7.22656 8.42969C7.26562 8.54688 7.30469 8.66406 7.22656 8.82031C6.83594 9.64062 6.36719 9.60156 6.60156 9.99219C7.46094 11.4375 8.28125 11.9453 9.57031 12.5703C9.76562 12.6875 9.88281 12.6484 10.0391 12.5312C10.1562 12.375 10.5859 11.8672 10.7031 11.6719C10.8594 11.4375 11.0156 11.4766 11.2109 11.5547C11.4062 11.6328 12.4609 12.1406 12.6953 12.2578Z" fill="#28A745"/>
<path d="M18.576 17.232V17.124C19.4 16.276 20.024 15.288 20.448 14.16C20.88 13.032 21.096 11.848 21.096 10.608C21.096 9.336 20.868 8.112 20.412 6.936C19.964 5.752 19.292 4.74 18.396 3.9V3.792H19.536C20.376 4.568 21.02 5.556 21.468 6.756C21.924 7.948 22.152 9.232 22.152 10.608C22.152 11.952 21.936 13.204 21.504 14.364C21.08 15.524 20.484 16.48 19.716 17.232H18.576Z" fill="#64748B"/>
</svg>
